<svg version="1.1" width="256" height="256" viewBox="0 0 256 256">

<defs>
</defs>
<g style="stroke: none; stroke-width: 0; stroke-dasharray: none; stroke-linecap: butt; stroke-linejoin: miter; stroke-miterlimit: 10; fill: none; fill-rule: nonzero; opacity: 1;" transform="translate(1.4065934065934016 1.4065934065934016) scale(2.81 2.81)" >
	<path d="M 89.352 43.599 c -29.568 -24.903 -59.137 -24.903 -88.705 0 c -0.863 0.727 -0.863 2.075 0 2.802 c 29.568 24.903 59.137 24.903 88.705 0 C 90.216 45.674 90.216 44.326 89.352 43.599 z M 45 59 c -7.732 0 -14 -6.268 -14 -14 c 0 -7.732 6.268 -14 14 -14 s 14 6.268 14 14 C 59 52.732 52.732 59 45 59 z" style="stroke: none; stroke-width: 1; stroke-dasharray: none; stroke-linecap: butt; stroke-linejoin: miter; stroke-miterlimit: 10; fill: rgb(0,0,0); fill-rule: nonzero; opacity: 1;" transform=" matrix(1 0 0 1 0 0) " stroke-linecap="round" />
	<path d="M 46.24 34.646 c -0.407 -0.048 -0.819 -0.08 -1.24 -0.08 c -5.763 0 -10.434 4.672 -10.434 10.434 c 0 5.763 4.672 10.434 10.434 10.434 S 55.434 50.763 55.434 45 c 0 -0.42 -0.032 -0.832 -0.08 -1.24 C 50.584 43.195 46.805 39.416 46.24 34.646 z" style="stroke: none; stroke-width: 1; stroke-dasharray: none; stroke-linecap: butt; stroke-linejoin: miter; stroke-miterlimit: 10; fill: rgb(0,0,0); fill-rule: nonzero; opacity: 1;" transform=" matrix(1 0 0 1 0 0) " stroke-linecap="round" />
</g>
</svg>